<?xml version="1.0" encoding="UTF-8"?>
<svg xmlns="http://www.w3.org/2000/svg" viewBox="0 0 512 512">
  <defs>
    <linearGradient id="bg" x1="0" y1="0" x2="1" y2="1">
      <stop offset="0%" stop-color="#667eea"/>
      <stop offset="100%" stop-color="#764ba2"/>
    </linearGradient>
  </defs>
  <!-- background (with safe-area padding for maskable icons) -->
  <rect width="512" height="512" rx="100" fill="url(#bg)"/>
  <!-- three kanban columns -->
  <g transform="translate(96 144)">
    <!-- column 1: todo -->
    <rect x="0" y="0" width="88" height="224" rx="14" fill="#ffffff" opacity="0.9"/>
    <rect x="14" y="20" width="60" height="14" rx="4" fill="#a0aec0"/>
    <rect x="14" y="44" width="60" height="14" rx="4" fill="#a0aec0"/>
    <rect x="14" y="68" width="42" height="14" rx="4" fill="#cbd5e0"/>
    <!-- column 2: in progress -->
    <rect x="116" y="0" width="88" height="224" rx="14" fill="#ffffff"/>
    <rect x="130" y="20" width="60" height="14" rx="4" fill="#63b3ed"/>
    <rect x="130" y="44" width="60" height="14" rx="4" fill="#63b3ed"/>
    <!-- column 3: done -->
    <rect x="232" y="0" width="88" height="224" rx="14" fill="#ffffff" opacity="0.9"/>
    <rect x="246" y="20" width="60" height="14" rx="4" fill="#68d391"/>
    <!-- big checkmark on done column -->
    <path d="M 250 60 L 264 76 L 296 44" stroke="#276749" stroke-width="8" fill="none" stroke-linecap="round" stroke-linejoin="round"/>
  </g>
</svg>
